M48
;Layer_Color=9474304
;FILE_FORMAT=2:5
INCH,LZ
;TYPE=PLATED
T1F00S00C0.01575
T2F00S00C0.03543
%
T01
X0023031Y0005413
X0023524Y0014764
X0024409Y0020276
X0028642Y0030512
X0025984Y0037697
X0014567Y0034744
X0014567Y0026772
X0013583Y0016634
X0032876Y0004823
X0037697Y0002362
X0044488
X0049409Y0008366
X0048917Y0016535
X0045573Y0024214
X0046752Y0028642
X0039862Y0028839
X0041045Y0032679
X0038092Y0034647
Y0041242
X0036516Y0044488
X0040848Y0046164
X003878Y0048524
X0041144Y0053448
X004813Y0049705
X0054134Y0046654
X0057089Y0043801
X0064075Y0045079
X0068602Y0050787
X006752Y0059941
X005Y0060433
X0036319Y0059744
X0059153Y0032677
X0056988Y0030118
X0054331Y0024409
X005561Y0002362
T02
X0010236Y0011811
Y0021654
Y0031496
Y0041339
Y0051181
M30
