G04*
G04 #@! TF.GenerationSoftware,Altium Limited,Altium Designer,18.0.11 (651)*
G04*
G04 Layer_Color=8388736*
%FSLAX25Y25*%
%MOIN*%
G70*
G01*
G75*
G04:AMPARAMS|DCode=15|XSize=94.61mil|YSize=67.06mil|CornerRadius=11.38mil|HoleSize=0mil|Usage=FLASHONLY|Rotation=180.000|XOffset=0mil|YOffset=0mil|HoleType=Round|Shape=RoundedRectangle|*
%AMROUNDEDRECTD15*
21,1,0.09461,0.04429,0,0,180.0*
21,1,0.07185,0.06706,0,0,180.0*
1,1,0.02276,-0.03593,0.02215*
1,1,0.02276,0.03593,0.02215*
1,1,0.02276,0.03593,-0.02215*
1,1,0.02276,-0.03593,-0.02215*
%
%ADD15ROUNDEDRECTD15*%
%ADD16R,0.04343X0.01587*%
%ADD17R,0.01587X0.04343*%
%ADD18R,0.07493X0.07493*%
%ADD19R,0.04737X0.08674*%
G04:AMPARAMS|DCode=20|XSize=47.37mil|YSize=43.43mil|CornerRadius=8.43mil|HoleSize=0mil|Usage=FLASHONLY|Rotation=270.000|XOffset=0mil|YOffset=0mil|HoleType=Round|Shape=RoundedRectangle|*
%AMROUNDEDRECTD20*
21,1,0.04737,0.02657,0,0,270.0*
21,1,0.03051,0.04343,0,0,270.0*
1,1,0.01686,-0.01329,-0.01526*
1,1,0.01686,-0.01329,0.01526*
1,1,0.01686,0.01329,0.01526*
1,1,0.01686,0.01329,-0.01526*
%
%ADD20ROUNDEDRECTD20*%
G04:AMPARAMS|DCode=21|XSize=47.37mil|YSize=43.43mil|CornerRadius=8.43mil|HoleSize=0mil|Usage=FLASHONLY|Rotation=180.000|XOffset=0mil|YOffset=0mil|HoleType=Round|Shape=RoundedRectangle|*
%AMROUNDEDRECTD21*
21,1,0.04737,0.02657,0,0,180.0*
21,1,0.03051,0.04343,0,0,180.0*
1,1,0.01686,-0.01526,0.01329*
1,1,0.01686,0.01526,0.01329*
1,1,0.01686,0.01526,-0.01329*
1,1,0.01686,-0.01526,-0.01329*
%
%ADD21ROUNDEDRECTD21*%
G04:AMPARAMS|DCode=22|XSize=39.5mil|YSize=39.5mil|CornerRadius=7.94mil|HoleSize=0mil|Usage=FLASHONLY|Rotation=270.000|XOffset=0mil|YOffset=0mil|HoleType=Round|Shape=RoundedRectangle|*
%AMROUNDEDRECTD22*
21,1,0.03950,0.02362,0,0,270.0*
21,1,0.02362,0.03950,0,0,270.0*
1,1,0.01587,-0.01181,-0.01181*
1,1,0.01587,-0.01181,0.01181*
1,1,0.01587,0.01181,0.01181*
1,1,0.01587,0.01181,-0.01181*
%
%ADD22ROUNDEDRECTD22*%
%ADD23R,0.08674X0.04737*%
G04:AMPARAMS|DCode=24|XSize=47.37mil|YSize=33.98mil|CornerRadius=10.5mil|HoleSize=0mil|Usage=FLASHONLY|Rotation=0.000|XOffset=0mil|YOffset=0mil|HoleType=Round|Shape=RoundedRectangle|*
%AMROUNDEDRECTD24*
21,1,0.04737,0.01299,0,0,0.0*
21,1,0.02638,0.03398,0,0,0.0*
1,1,0.02099,0.01319,-0.00650*
1,1,0.02099,-0.01319,-0.00650*
1,1,0.02099,-0.01319,0.00650*
1,1,0.02099,0.01319,0.00650*
%
%ADD24ROUNDEDRECTD24*%
%ADD25R,0.04737X0.03398*%
%ADD26C,0.06706*%
D15*
X43504Y9646D02*
D03*
X60039D02*
D03*
D16*
X44685Y41929D02*
D03*
Y40354D02*
D03*
Y38780D02*
D03*
Y37205D02*
D03*
Y35630D02*
D03*
X56299D02*
D03*
Y37205D02*
D03*
Y38780D02*
D03*
Y40354D02*
D03*
Y41929D02*
D03*
D17*
X47343Y32972D02*
D03*
X48917D02*
D03*
X50492D02*
D03*
X52067D02*
D03*
X53642D02*
D03*
Y44587D02*
D03*
X52067D02*
D03*
X50492D02*
D03*
X48917D02*
D03*
X47343D02*
D03*
D18*
X50492Y38780D02*
D03*
D19*
X30315Y7677D02*
D03*
X35236D02*
D03*
X47736Y56201D02*
D03*
X37894D02*
D03*
X42815D02*
D03*
D20*
X29724Y33957D02*
D03*
X36417D02*
D03*
D21*
X62008Y48327D02*
D03*
Y55020D02*
D03*
X46555Y25000D02*
D03*
Y18307D02*
D03*
X52362Y18307D02*
D03*
Y25000D02*
D03*
D22*
X67815Y48228D02*
D03*
Y54921D02*
D03*
D23*
X67618Y31201D02*
D03*
Y36122D02*
D03*
Y26280D02*
D03*
Y41043D02*
D03*
D24*
X40571Y18110D02*
D03*
Y25591D02*
D03*
X30217Y18110D02*
D03*
Y21850D02*
D03*
D25*
Y25591D02*
D03*
D26*
X10630Y12205D02*
D03*
Y22047D02*
D03*
Y31890D02*
D03*
Y41732D02*
D03*
Y51575D02*
D03*
M02*
