G04*
G04 #@! TF.GenerationSoftware,Altium Limited,Altium Designer,18.0.11 (651)*
G04*
G04 Layer_Physical_Order=2*
G04 Layer_Color=16711680*
%FSLAX25Y25*%
%MOIN*%
G70*
G01*
G75*
%ADD11C,0.00787*%
G04:AMPARAMS|DCode=32|XSize=39.37mil|YSize=35.43mil|CornerRadius=4.43mil|HoleSize=0mil|Usage=FLASHONLY|Rotation=270.000|XOffset=0mil|YOffset=0mil|HoleType=Round|Shape=RoundedRectangle|*
%AMROUNDEDRECTD32*
21,1,0.03937,0.02657,0,0,270.0*
21,1,0.03051,0.03543,0,0,270.0*
1,1,0.00886,-0.01329,-0.01526*
1,1,0.00886,-0.01329,0.01526*
1,1,0.00886,0.01329,0.01526*
1,1,0.00886,0.01329,-0.01526*
%
%ADD32ROUNDEDRECTD32*%
%ADD38C,0.05906*%
%ADD39C,0.02756*%
%ADD40R,0.04724X0.02362*%
G36*
X74000Y1197D02*
X803D01*
Y62189D01*
X74000D01*
Y1197D01*
D02*
G37*
%LPC*%
G36*
X37943Y58587D02*
X35285D01*
X34896Y58510D01*
X34843Y58563D01*
X31693D01*
X30906Y57776D01*
Y53839D01*
X31067Y53678D01*
X31593Y52903D01*
X31067Y52130D01*
X30906Y51968D01*
Y48031D01*
X30294Y46973D01*
X28593D01*
X28113Y46877D01*
X27705Y46606D01*
X27434Y46199D01*
X27338Y45719D01*
Y43313D01*
X25831Y41806D01*
X25492Y41873D01*
X24647Y41705D01*
X23931Y41227D01*
X23452Y40510D01*
X23284Y39665D01*
X23352Y39327D01*
X19523Y35497D01*
X19523Y35497D01*
X17119Y33094D01*
X14179D01*
X13897Y33776D01*
X13297Y34557D01*
X12516Y35157D01*
X11606Y35534D01*
X10630Y35662D01*
X9654Y35534D01*
X8744Y35157D01*
X7962Y34557D01*
X7363Y33776D01*
X6986Y32866D01*
X6858Y31890D01*
X6986Y30913D01*
X7363Y30003D01*
X7962Y29222D01*
X8744Y28623D01*
X9654Y28246D01*
X10630Y28117D01*
X11606Y28246D01*
X12516Y28623D01*
X13297Y29222D01*
X13897Y30003D01*
X14179Y30685D01*
X17618D01*
X17618Y30685D01*
X18079Y30777D01*
X18470Y31038D01*
X20929Y33498D01*
X21226Y33696D01*
X21424Y33992D01*
X24989Y37558D01*
X25492Y37458D01*
X26337Y37626D01*
X27053Y38104D01*
X27532Y38820D01*
X27700Y39665D01*
X27600Y40168D01*
X28844Y41413D01*
X30294D01*
X30906Y40354D01*
Y36417D01*
X31067Y36256D01*
X31593Y35482D01*
X31067Y34708D01*
X30906Y34547D01*
Y30610D01*
X30294Y29552D01*
X28593D01*
X28113Y29456D01*
X27705Y29184D01*
X27434Y28777D01*
X27338Y28297D01*
Y25892D01*
X25879Y24433D01*
X13780D01*
X13780Y24433D01*
X13549Y24387D01*
X13297Y24715D01*
X12516Y25314D01*
X11606Y25691D01*
X10630Y25820D01*
X9654Y25691D01*
X8744Y25314D01*
X7962Y24715D01*
X7363Y23933D01*
X6986Y23024D01*
X6858Y22047D01*
X6986Y21071D01*
X7363Y20161D01*
X7962Y19380D01*
X8744Y18780D01*
X9654Y18403D01*
X10630Y18275D01*
X11606Y18403D01*
X12516Y18780D01*
X13297Y19380D01*
X13897Y20161D01*
X14274Y21071D01*
X14399Y22024D01*
X26378D01*
X26378Y22024D01*
X26839Y22116D01*
X27229Y22377D01*
X28844Y23992D01*
X30294D01*
X30906Y22933D01*
Y18996D01*
X30294Y17937D01*
X28593D01*
X28113Y17842D01*
X27705Y17570D01*
X27434Y17163D01*
X27338Y16683D01*
Y15456D01*
X27031Y15177D01*
X26157Y14694D01*
X25591Y14806D01*
X24746Y14638D01*
X24029Y14160D01*
X23791Y13803D01*
X14016D01*
X13897Y14091D01*
X13297Y14872D01*
X12516Y15472D01*
X11606Y15849D01*
X10630Y15977D01*
X9654Y15849D01*
X8744Y15472D01*
X7962Y14872D01*
X7363Y14091D01*
X6986Y13181D01*
X6858Y12205D01*
X6986Y11228D01*
X7363Y10318D01*
X7962Y9537D01*
X8744Y8938D01*
X9654Y8561D01*
X10630Y8432D01*
X11606Y8561D01*
X12516Y8938D01*
X13297Y9537D01*
X13897Y10318D01*
X14274Y11228D01*
X14296Y11394D01*
X23791D01*
X24029Y11037D01*
X24746Y10559D01*
X25591Y10391D01*
X26436Y10559D01*
X27152Y11037D01*
X27395Y11401D01*
X27823Y11486D01*
X28214Y11747D01*
X28844Y12377D01*
X30195D01*
X30906Y11417D01*
Y7480D01*
X31693Y6693D01*
X32307D01*
X33089Y5512D01*
X33030Y5217D01*
X33198Y4372D01*
X33677Y3656D01*
X34393Y3177D01*
X35238Y3009D01*
X36083Y3177D01*
X36799Y3656D01*
X37037Y4012D01*
X37533D01*
X37533Y4012D01*
X37994Y4104D01*
X38385Y4365D01*
X40615Y6596D01*
X40876Y6987D01*
X40968Y7447D01*
X40968Y7447D01*
Y21942D01*
X42549Y23524D01*
X46555D01*
Y27461D01*
X40771D01*
Y29695D01*
X42291Y31214D01*
X42563Y31033D01*
X43407Y30865D01*
X44252Y31033D01*
X44969Y31511D01*
X45447Y32228D01*
X45615Y33073D01*
X45447Y33917D01*
X44969Y34634D01*
X44252Y35112D01*
X43407Y35280D01*
X42645Y35129D01*
X42494Y35886D01*
X42016Y36602D01*
X41921Y37561D01*
X48588Y44227D01*
X48588Y44227D01*
X48849Y44618D01*
X48941Y45079D01*
X48941Y45079D01*
Y50098D01*
X48941Y50098D01*
X48849Y50559D01*
X48588Y50950D01*
X48588Y50950D01*
X45711Y53827D01*
X45714Y53841D01*
X45546Y54686D01*
X45067Y55402D01*
X44351Y55881D01*
X43506Y56049D01*
X42661Y55881D01*
X41945Y55402D01*
X41466Y54686D01*
X41298Y53841D01*
X41466Y52996D01*
X41945Y52280D01*
X42661Y51802D01*
X43506Y51633D01*
X44334Y51798D01*
X46532Y49600D01*
Y45578D01*
X43578Y42624D01*
X42202Y42918D01*
X42016Y43197D01*
X41300Y43676D01*
X41086Y44882D01*
X40918Y45727D01*
X40439Y46443D01*
X39723Y46922D01*
X39334Y47594D01*
X39151Y48240D01*
X39197Y48474D01*
Y51526D01*
X39102Y52006D01*
X38983Y52184D01*
X38830Y52440D01*
Y53367D01*
X38983Y53623D01*
X39102Y53802D01*
X39197Y54282D01*
Y57333D01*
X39102Y57813D01*
X38830Y58220D01*
X38423Y58492D01*
X37943Y58587D01*
D02*
G37*
G36*
X25591Y53684D02*
X24746Y53516D01*
X24029Y53038D01*
X23791Y52681D01*
X22343D01*
X21882Y52589D01*
X21491Y52328D01*
X21491Y52328D01*
X13546Y44383D01*
X13297Y44400D01*
X12516Y44999D01*
X11606Y45376D01*
X10630Y45505D01*
X9654Y45376D01*
X8744Y44999D01*
X7962Y44400D01*
X7363Y43619D01*
X6986Y42709D01*
X6858Y41732D01*
X6986Y40756D01*
X7363Y39846D01*
X7962Y39065D01*
X8744Y38465D01*
X9654Y38088D01*
X10630Y37960D01*
X11606Y38088D01*
X12516Y38465D01*
X13297Y39065D01*
X13897Y39846D01*
X14274Y40756D01*
X14402Y41732D01*
X14391Y41821D01*
X22705Y50136D01*
X23934Y50058D01*
X24029Y49915D01*
X24746Y49437D01*
X25591Y49269D01*
X26436Y49437D01*
X27152Y49915D01*
X27630Y50631D01*
X27798Y51476D01*
X27630Y52321D01*
X27152Y53038D01*
X26436Y53516D01*
X25591Y53684D01*
D02*
G37*
G36*
X59452Y46403D02*
X58607Y46235D01*
X57890Y45756D01*
X57412Y45040D01*
X57244Y44195D01*
X57412Y43350D01*
X57752Y42840D01*
Y34259D01*
X54695Y31201D01*
X50492D01*
Y27264D01*
X56791D01*
Y29891D01*
X59808Y32908D01*
X60069Y33299D01*
X60161Y33760D01*
X60161Y33760D01*
Y42128D01*
X60296Y42155D01*
X61013Y42634D01*
X61491Y43350D01*
X61659Y44195D01*
X61491Y45040D01*
X61013Y45756D01*
X60296Y46235D01*
X59452Y46403D01*
D02*
G37*
%LPD*%
D11*
X20374Y34646D02*
X29921Y44193D01*
X25591Y12598D02*
X27362D01*
X12598D02*
X25591D01*
X12598Y41732D02*
X22343Y51476D01*
X24508D01*
X17618Y31890D02*
X20374Y34646D01*
Y34547D02*
Y34646D01*
X36811Y44390D02*
X38878D01*
X36614Y44193D02*
Y55807D01*
X26378Y23228D02*
X29921Y26772D01*
X13780Y23228D02*
X26378D01*
X12598Y22047D02*
X13780Y23228D01*
X40157Y35634D02*
X40750Y35041D01*
X47736Y45079D02*
Y50098D01*
X40157Y37500D02*
X47736Y45079D01*
X40157Y35634D02*
Y37500D01*
X42544Y33171D02*
X44193D01*
X39567Y24471D02*
Y30194D01*
X42544Y33171D01*
X43506Y53841D02*
X43993D01*
X42913D02*
X43506D01*
X58957Y43309D02*
X59350Y43703D01*
X58957Y33760D02*
Y43309D01*
X54429Y29232D02*
X58957Y33760D01*
X43993Y53841D02*
X47736Y50098D01*
X36614Y38386D02*
X40061Y41833D01*
X40553D01*
X36614Y44193D02*
X36811Y44390D01*
X12598Y31890D02*
X17618D01*
X43406Y25492D02*
X44193D01*
X42815D02*
X43406D01*
X36614Y20965D02*
Y21518D01*
X39567Y24471D01*
X39764Y22441D02*
X42815Y25492D01*
X39764Y7447D02*
Y22441D01*
X37533Y5217D02*
X39764Y7447D01*
X35238Y5217D02*
X37533D01*
X36614Y9449D02*
Y15157D01*
X35238Y5217D02*
X35238Y5217D01*
X36614Y55807D02*
X36614Y55807D01*
X36614Y32579D02*
Y38386D01*
Y32579D02*
X36614Y32579D01*
Y26772D02*
Y32579D01*
X36614Y20965D02*
X36614Y20965D01*
Y15157D02*
Y20965D01*
X36614Y15157D02*
X36614Y15157D01*
X27362Y12598D02*
X29921Y15157D01*
D32*
X36614Y55807D02*
D03*
X29921D02*
D03*
X36614Y44193D02*
D03*
X29921D02*
D03*
X29921Y38386D02*
D03*
X36614D02*
D03*
X29921Y20965D02*
D03*
X36614D02*
D03*
X36614Y26772D02*
D03*
X29921D02*
D03*
X36614Y15157D02*
D03*
X29921D02*
D03*
X29921Y32579D02*
D03*
X36614D02*
D03*
X29921Y9449D02*
D03*
X36614D02*
D03*
Y50000D02*
D03*
X29921D02*
D03*
D38*
X10630Y12205D02*
D03*
Y22047D02*
D03*
Y31890D02*
D03*
Y41732D02*
D03*
Y51575D02*
D03*
D39*
X25492Y39665D02*
D03*
X25591Y12598D02*
D03*
X25591Y51476D02*
D03*
X38878Y44882D02*
D03*
X61516Y33071D02*
D03*
X59452Y44195D02*
D03*
X40455Y35041D02*
D03*
X42423Y47345D02*
D03*
X40455Y41636D02*
D03*
X52362Y60039D02*
D03*
X51279Y16929D02*
D03*
X56693Y24803D02*
D03*
X57973Y2756D02*
D03*
X46850D02*
D03*
X40059D02*
D03*
X27559Y60236D02*
D03*
X70866Y11811D02*
D03*
X28740Y37697D02*
D03*
X38681Y60138D02*
D03*
X25591Y20669D02*
D03*
X50492Y50098D02*
D03*
X25590Y16339D02*
D03*
X25591Y5807D02*
D03*
X51772Y8760D02*
D03*
X69882Y60335D02*
D03*
X70965Y51181D02*
D03*
X66437Y45472D02*
D03*
X31004Y30906D02*
D03*
X49114Y29035D02*
D03*
X47935Y24608D02*
D03*
X42224Y29232D02*
D03*
X56496Y47047D02*
D03*
X59350Y30512D02*
D03*
X35238Y5217D02*
D03*
X43407Y33073D02*
D03*
X43506Y53841D02*
D03*
D40*
X53642Y29232D02*
D03*
Y21752D02*
D03*
X43406Y25492D02*
D03*
M02*
