M48
;Layer_Color=9474304
;FILE_FORMAT=2:5
INCH,LZ
;TYPE=PLATED
T1F00S00C0.01575
T2F00S00C0.03543
%
T01
X0025591Y0005807
X0025591Y0012598
X002559Y0016339
X0025591Y0020669
X0031004Y0030906
X002874Y0037697
X0025492Y0039665
X0025591Y0051476
X0027559Y0060236
X0038681Y0060138
X0043506Y0053841
X0042423Y0047345
X0038878Y0044882
X0040455Y0041636
Y0035041
X0043407Y0033073
X0042224Y0029232
X0049114Y0029035
X0047935Y0024608
X0056693Y0024803
X005935Y0030512
X0061516Y0033071
X0059452Y0044195
X0056496Y0047047
X0050492Y0050098
X0052362Y0060039
X0069882Y0060335
X0070965Y0051181
X0066437Y0045472
X0070866Y0011811
X0057973Y0002756
X004685
X0040059
X0035238Y0005217
X0051772Y000876
X0051279Y0016929
T02
X001063Y0012205
Y0022047
Y003189
Y0041732
Y0051575
M30
