G04*
G04 #@! TF.GenerationSoftware,Altium Limited,Altium Designer,18.0.11 (651)*
G04*
G04 Layer_Physical_Order=1*
G04 Layer_Color=255*
%FSLAX25Y25*%
%MOIN*%
G70*
G01*
G75*
%ADD11C,0.00787*%
G04:AMPARAMS|DCode=27|XSize=86.61mil|YSize=59.06mil|CornerRadius=7.38mil|HoleSize=0mil|Usage=FLASHONLY|Rotation=180.000|XOffset=0mil|YOffset=0mil|HoleType=Round|Shape=RoundedRectangle|*
%AMROUNDEDRECTD27*
21,1,0.08661,0.04429,0,0,180.0*
21,1,0.07185,0.05906,0,0,180.0*
1,1,0.01476,-0.03593,0.02215*
1,1,0.01476,0.03593,0.02215*
1,1,0.01476,0.03593,-0.02215*
1,1,0.01476,-0.03593,-0.02215*
%
%ADD27ROUNDEDRECTD27*%
%ADD28R,0.03543X0.00787*%
%ADD29R,0.00787X0.03543*%
%ADD30R,0.06693X0.06693*%
%ADD31R,0.03937X0.07874*%
G04:AMPARAMS|DCode=32|XSize=39.37mil|YSize=35.43mil|CornerRadius=4.43mil|HoleSize=0mil|Usage=FLASHONLY|Rotation=270.000|XOffset=0mil|YOffset=0mil|HoleType=Round|Shape=RoundedRectangle|*
%AMROUNDEDRECTD32*
21,1,0.03937,0.02657,0,0,270.0*
21,1,0.03051,0.03543,0,0,270.0*
1,1,0.00886,-0.01329,-0.01526*
1,1,0.00886,-0.01329,0.01526*
1,1,0.00886,0.01329,0.01526*
1,1,0.00886,0.01329,-0.01526*
%
%ADD32ROUNDEDRECTD32*%
G04:AMPARAMS|DCode=33|XSize=39.37mil|YSize=35.43mil|CornerRadius=4.43mil|HoleSize=0mil|Usage=FLASHONLY|Rotation=180.000|XOffset=0mil|YOffset=0mil|HoleType=Round|Shape=RoundedRectangle|*
%AMROUNDEDRECTD33*
21,1,0.03937,0.02657,0,0,180.0*
21,1,0.03051,0.03543,0,0,180.0*
1,1,0.00886,-0.01526,0.01329*
1,1,0.00886,0.01526,0.01329*
1,1,0.00886,0.01526,-0.01329*
1,1,0.00886,-0.01526,-0.01329*
%
%ADD33ROUNDEDRECTD33*%
G04:AMPARAMS|DCode=34|XSize=31.5mil|YSize=31.5mil|CornerRadius=3.94mil|HoleSize=0mil|Usage=FLASHONLY|Rotation=270.000|XOffset=0mil|YOffset=0mil|HoleType=Round|Shape=RoundedRectangle|*
%AMROUNDEDRECTD34*
21,1,0.03150,0.02362,0,0,270.0*
21,1,0.02362,0.03150,0,0,270.0*
1,1,0.00787,-0.01181,-0.01181*
1,1,0.00787,-0.01181,0.01181*
1,1,0.00787,0.01181,0.01181*
1,1,0.00787,0.01181,-0.01181*
%
%ADD34ROUNDEDRECTD34*%
%ADD35R,0.07874X0.03937*%
G04:AMPARAMS|DCode=36|XSize=39.37mil|YSize=25.98mil|CornerRadius=6.5mil|HoleSize=0mil|Usage=FLASHONLY|Rotation=0.000|XOffset=0mil|YOffset=0mil|HoleType=Round|Shape=RoundedRectangle|*
%AMROUNDEDRECTD36*
21,1,0.03937,0.01299,0,0,0.0*
21,1,0.02638,0.02598,0,0,0.0*
1,1,0.01299,0.01319,-0.00650*
1,1,0.01299,-0.01319,-0.00650*
1,1,0.01299,-0.01319,0.00650*
1,1,0.01299,0.01319,0.00650*
%
%ADD36ROUNDEDRECTD36*%
%ADD37R,0.03937X0.02598*%
%ADD38C,0.05906*%
%ADD39C,0.02756*%
G36*
X74000Y1197D02*
X803D01*
Y62189D01*
X74000D01*
Y1197D01*
D02*
G37*
%LPC*%
G36*
X50492Y60925D02*
X40059D01*
Y51992D01*
X27696D01*
X27630Y52321D01*
X27152Y53038D01*
X26436Y53516D01*
X25591Y53684D01*
X24746Y53516D01*
X24029Y53038D01*
X23551Y52321D01*
X23383Y51476D01*
X23551Y50631D01*
X24029Y49915D01*
X24746Y49437D01*
X25591Y49269D01*
X26436Y49437D01*
X26655Y49583D01*
X42415D01*
X46138Y45860D01*
Y44587D01*
X46161Y44470D01*
Y43110D01*
X44801D01*
X44685Y43133D01*
X44298D01*
X42190Y45241D01*
X41799Y45502D01*
X41339Y45594D01*
X40918Y45727D01*
X40439Y46443D01*
X39723Y46922D01*
X38878Y47090D01*
X38033Y46922D01*
X37317Y46443D01*
X36838Y45727D01*
X36670Y44882D01*
X36838Y44037D01*
X37317Y43321D01*
X38033Y42842D01*
X38247Y41636D01*
X38415Y40791D01*
X38893Y40075D01*
X39610Y39596D01*
X40455Y39428D01*
X40538Y39445D01*
X41105Y39180D01*
X41285Y38576D01*
X41312Y38402D01*
X41320Y37935D01*
X40604Y37219D01*
X40455Y37249D01*
X39814Y37121D01*
X39610Y37081D01*
X39610Y37081D01*
X38893Y36602D01*
X38226Y36641D01*
X37748Y36736D01*
X37746Y36737D01*
X37698Y36737D01*
X35089D01*
X34699Y36659D01*
X34646Y36713D01*
X31496D01*
X30709Y35925D01*
Y31988D01*
X31496Y31201D01*
X34646D01*
X35213Y30255D01*
Y28937D01*
X35213Y28937D01*
X35305Y28476D01*
X35566Y28086D01*
X37787Y25864D01*
Y24941D01*
X37898Y24380D01*
X38216Y23905D01*
X38691Y23587D01*
X39252Y23476D01*
X40862D01*
X41248Y22976D01*
X40668Y21795D01*
X34570D01*
Y23258D01*
X34570Y23258D01*
X34479Y23719D01*
X34218Y24110D01*
X34218Y24110D01*
X32972Y25355D01*
Y27677D01*
X28947D01*
X26893Y29731D01*
Y37997D01*
X27053Y38104D01*
X27532Y38820D01*
X27700Y39665D01*
X27532Y40510D01*
X27053Y41227D01*
X26337Y41705D01*
X25492Y41873D01*
X24647Y41705D01*
X23931Y41227D01*
X23452Y40510D01*
X23284Y39665D01*
X23452Y38820D01*
X23931Y38104D01*
X24485Y37734D01*
Y29232D01*
X24485Y29232D01*
X24576Y28771D01*
X24837Y28381D01*
X27461Y25758D01*
Y23504D01*
X31418D01*
X32162Y22760D01*
Y20941D01*
X31446Y20225D01*
X28898D01*
X28337Y20113D01*
X27862Y19796D01*
X27544Y19320D01*
X27433Y18760D01*
Y17461D01*
X27544Y16900D01*
X27862Y16425D01*
X28337Y16107D01*
X28898Y15995D01*
X31535D01*
X32096Y16107D01*
X32572Y16425D01*
X32889Y16900D01*
X33001Y17461D01*
Y18374D01*
X34013Y19386D01*
X36707D01*
X37787Y18760D01*
Y17461D01*
X37898Y16900D01*
X38216Y16425D01*
X38691Y16107D01*
X39252Y15995D01*
X41890D01*
X42450Y16107D01*
X42710Y16280D01*
X43155Y16364D01*
X44133Y16105D01*
X44142Y16091D01*
X44550Y15820D01*
X45030Y15724D01*
X48081D01*
X48561Y15820D01*
X48968Y16091D01*
X49240Y16498D01*
X49335Y16978D01*
Y18680D01*
X50394Y19291D01*
X54331D01*
X55118Y20079D01*
Y23228D01*
X55065Y23282D01*
X55142Y23671D01*
Y25782D01*
X56109Y26748D01*
X61024D01*
X61024Y26748D01*
X61484Y26840D01*
X61875Y27101D01*
X63196Y28422D01*
X65157D01*
X65157Y28422D01*
X65274Y28445D01*
X72342D01*
Y33366D01*
Y38287D01*
Y43799D01*
X63215D01*
Y45255D01*
X63215Y45255D01*
X64013Y45839D01*
X64420Y46111D01*
X64692Y46518D01*
X64788Y46998D01*
Y49310D01*
X65846Y49606D01*
X65846Y49606D01*
Y49606D01*
X65846Y49606D01*
X69783D01*
Y52846D01*
X69848Y52889D01*
X70109Y53279D01*
X70200Y53740D01*
Y56102D01*
X70109Y56563D01*
X69848Y56954D01*
X69457Y57215D01*
X68996Y57307D01*
X66634D01*
X66173Y57215D01*
X65782Y56954D01*
X65770Y56952D01*
X64514Y57095D01*
X64420Y57235D01*
X64013Y57507D01*
X63533Y57603D01*
X60482D01*
X60002Y57507D01*
X59595Y57235D01*
X59323Y56828D01*
X59228Y56348D01*
Y53691D01*
X59305Y53301D01*
X59252Y53248D01*
Y50098D01*
X59305Y50045D01*
X59228Y49656D01*
Y46998D01*
X58607Y46235D01*
X57890Y45756D01*
X57412Y45040D01*
X57244Y44195D01*
X56260Y43110D01*
X54823D01*
Y47146D01*
X50095D01*
X50030Y47471D01*
X49769Y47862D01*
X47366Y50265D01*
Y51477D01*
X50492D01*
Y60925D01*
D02*
G37*
G36*
X10630Y45505D02*
X9654Y45376D01*
X8744Y44999D01*
X7962Y44400D01*
X7363Y43619D01*
X6986Y42709D01*
X6858Y41732D01*
X6986Y40756D01*
X7363Y39846D01*
X7962Y39065D01*
X8744Y38465D01*
X9654Y38088D01*
X10630Y37960D01*
X11606Y38088D01*
X12516Y38465D01*
X13297Y39065D01*
X13897Y39846D01*
X14274Y40756D01*
X14402Y41732D01*
X14274Y42709D01*
X13897Y43619D01*
X13297Y44400D01*
X12516Y44999D01*
X11606Y45376D01*
X10630Y45505D01*
D02*
G37*
G36*
Y35662D02*
X9654Y35534D01*
X8744Y35157D01*
X7962Y34557D01*
X7363Y33776D01*
X6986Y32866D01*
X6858Y31890D01*
X6986Y30913D01*
X7363Y30003D01*
X7962Y29222D01*
X8744Y28623D01*
X9654Y28246D01*
X10630Y28117D01*
X11606Y28246D01*
X12516Y28623D01*
X13297Y29222D01*
X13897Y30003D01*
X14274Y30913D01*
X14402Y31890D01*
X14274Y32866D01*
X13897Y33776D01*
X13297Y34557D01*
X12516Y35157D01*
X11606Y35534D01*
X10630Y35662D01*
D02*
G37*
G36*
Y25820D02*
X9654Y25691D01*
X8744Y25314D01*
X7962Y24715D01*
X7363Y23933D01*
X6986Y23024D01*
X6858Y22047D01*
X6986Y21071D01*
X7363Y20161D01*
X7962Y19380D01*
X8744Y18780D01*
X9654Y18403D01*
X10630Y18275D01*
X11606Y18403D01*
X12516Y18780D01*
X13297Y19380D01*
X13897Y20161D01*
X14274Y21071D01*
X14402Y22047D01*
X14274Y23024D01*
X13897Y23933D01*
X13297Y24715D01*
X12516Y25314D01*
X11606Y25691D01*
X10630Y25820D01*
D02*
G37*
G36*
Y15977D02*
X9654Y15849D01*
X8744Y15472D01*
X7962Y14872D01*
X7363Y14091D01*
X6986Y13181D01*
X6858Y12205D01*
X6986Y11228D01*
X7363Y10318D01*
X7962Y9537D01*
X8744Y8938D01*
X9654Y8561D01*
X10630Y8432D01*
X11606Y8561D01*
X12516Y8938D01*
X13297Y9537D01*
X13897Y10318D01*
X14274Y11228D01*
X14402Y12205D01*
X14274Y13181D01*
X13897Y14091D01*
X13297Y14872D01*
X12516Y15472D01*
X11606Y15849D01*
X10630Y15977D01*
D02*
G37*
G36*
X25591Y14806D02*
X24746Y14638D01*
X24029Y14160D01*
X23551Y13443D01*
X23383Y12598D01*
X23551Y11754D01*
X24029Y11037D01*
X24746Y10559D01*
X25591Y10391D01*
X26378Y10547D01*
X26448Y10551D01*
X27559Y9889D01*
Y2953D01*
X37992D01*
Y4308D01*
X54724D01*
X54724Y4307D01*
X55185Y4399D01*
X55576Y4660D01*
X56791Y5876D01*
X63632D01*
X64227Y5994D01*
X64732Y6331D01*
X65069Y6836D01*
X65187Y7431D01*
Y11860D01*
X65069Y12455D01*
X64732Y12960D01*
X64227Y13297D01*
X63632Y13416D01*
X56447D01*
X55851Y13297D01*
X55347Y12960D01*
X55010Y12455D01*
X54891Y11860D01*
Y7431D01*
X54037Y6716D01*
X49714D01*
X48652Y7431D01*
Y11860D01*
X48533Y12455D01*
X48196Y12960D01*
X47692Y13297D01*
X47096Y13416D01*
X40256D01*
X40025Y13647D01*
X39634Y13908D01*
X39173Y13999D01*
X39173Y13999D01*
X32778D01*
X32778Y13999D01*
X32318Y13908D01*
X31927Y13647D01*
X31927Y13647D01*
X31038Y12758D01*
X30800Y12402D01*
X29262D01*
X28214Y13450D01*
X27823Y13711D01*
X27395Y13796D01*
X27152Y14160D01*
X26436Y14638D01*
X25591Y14806D01*
D02*
G37*
%LPD*%
G36*
X53740Y39173D02*
Y35531D01*
X47244D01*
Y38386D01*
X47244D01*
Y39173D01*
X47244D01*
Y42028D01*
X53740D01*
Y39173D01*
D02*
G37*
G36*
X62894Y34633D02*
Y30830D01*
X62697D01*
X62236Y30738D01*
X61845Y30477D01*
X60525Y29157D01*
X55610D01*
X55149Y29065D01*
X54759Y28804D01*
X54759Y28804D01*
X53538Y27583D01*
X50837D01*
X50357Y27488D01*
X49950Y27216D01*
X49678Y26809D01*
X49582Y26329D01*
Y24627D01*
X48524Y24016D01*
X44587D01*
X44339Y23768D01*
X43324Y24784D01*
X43355Y24941D01*
Y26240D01*
X43243Y26801D01*
X42926Y27276D01*
X42450Y27594D01*
X41890Y27705D01*
X39352D01*
X37622Y29436D01*
Y31177D01*
X37746D01*
X38226Y31272D01*
X38633Y31544D01*
X38905Y31951D01*
X38923Y32040D01*
X39279Y32539D01*
X40077Y32847D01*
X41269Y32724D01*
X41368Y32228D01*
X41846Y31511D01*
X42563Y31033D01*
X43407Y30865D01*
X44252Y31033D01*
X44969Y31511D01*
X44980Y31529D01*
X46161Y31170D01*
Y30413D01*
X54823D01*
Y34449D01*
X56183D01*
X56299Y34426D01*
X60160D01*
X60160Y34426D01*
X60161Y34426D01*
X60517D01*
X60517Y34426D01*
X60978Y34517D01*
X61369Y34778D01*
X61713Y35122D01*
X62894Y34633D01*
D02*
G37*
D11*
X42913Y50787D02*
X47343Y46358D01*
X26280Y50787D02*
X42913D01*
X25591Y51476D02*
X26280Y50787D01*
X25689Y29232D02*
Y38780D01*
X25098Y39370D02*
X25689Y38780D01*
X46407Y18455D02*
X46850Y18898D01*
X45279D02*
X46850D01*
X25689Y29232D02*
X29331Y25591D01*
X25591Y12598D02*
X27362D01*
X30315Y9646D01*
Y7677D02*
Y9646D01*
X38878Y44882D02*
X39370Y44390D01*
X31890Y11907D02*
X32778Y12795D01*
X31890Y8661D02*
Y11907D01*
X32778Y12795D02*
X39173D01*
X49705Y22047D02*
X55610Y27953D01*
X40750Y35041D02*
Y35662D01*
X41339Y44390D02*
X43799Y41929D01*
X39370Y44390D02*
X41339D01*
X40455Y35041D02*
X40750D01*
X37502D02*
X40455D01*
X62697Y29626D02*
X65157D01*
X61024Y27953D02*
X62697Y29626D01*
X55610Y27953D02*
X61024D01*
X60517Y35630D02*
X61698Y36811D01*
X60160Y35630D02*
X60517D01*
X60160Y35630D02*
X60160Y35630D01*
X59865Y37205D02*
X60357Y37697D01*
X59508Y37205D02*
X59865D01*
X59508Y37205D02*
X59508Y37205D01*
X56299Y38780D02*
X59212D01*
X62008Y45258D02*
Y48327D01*
Y45258D02*
X62011Y45255D01*
Y43135D02*
Y45255D01*
X62008Y43132D02*
X62011Y43135D01*
X62008Y41575D02*
Y43132D01*
X58560Y40354D02*
X59941Y41735D01*
X56299Y40354D02*
X58560D01*
X59212Y38780D02*
X62008Y41575D01*
X60357Y37697D02*
X62129Y39469D01*
X56299Y37205D02*
X59508D01*
X56299Y35630D02*
X60160D01*
X43406D02*
X44685D01*
X43307Y35531D02*
X43406Y35630D01*
X43307Y33466D02*
Y35531D01*
X39173Y12795D02*
X42323Y9646D01*
X59252Y43903D02*
X59941Y43214D01*
Y41735D02*
Y43214D01*
X41091Y38230D02*
X41339Y38478D01*
X42292Y37205D02*
X44685D01*
X40750Y35662D02*
X42292Y37205D01*
X41339Y38478D02*
Y38780D01*
X44685D01*
X36417Y33957D02*
X37502Y35041D01*
X43799Y41929D02*
X44685D01*
X40553Y41833D02*
X40946D01*
X42424Y40354D01*
X44685D01*
X64468Y36811D02*
X66732Y34547D01*
X61698Y36811D02*
X64468D01*
X62106Y54921D02*
X67815D01*
X62008Y55020D02*
X62106Y54921D01*
X33514Y20591D02*
X43587D01*
X33366Y20443D02*
X33514Y20591D01*
X33366Y20443D02*
Y23258D01*
X65157Y29626D02*
X66732Y31201D01*
X40571Y25591D02*
X40814D01*
X43587Y20591D02*
X45279Y18898D01*
X40814Y25591D02*
X44357Y22047D01*
X49705D01*
X58957Y9744D02*
X62992D01*
X36172Y6151D02*
X36811Y5512D01*
X35236Y5218D02*
Y7677D01*
Y5218D02*
X35238Y5217D01*
X36811Y5512D02*
X54724D01*
X62129Y39469D02*
X66732D01*
X42323Y9646D02*
X43504D01*
X31034Y25591D02*
X33366Y23258D01*
X31034Y18110D02*
X33366Y20443D01*
X30217Y25591D02*
X31034D01*
X54724Y5512D02*
X58957Y9744D01*
X29331Y25591D02*
X30217D01*
Y18110D02*
X31034D01*
X44685Y38780D02*
X50492D01*
X39764Y25591D02*
X40571D01*
X36417Y28937D02*
X39764Y25591D01*
X36417Y28937D02*
Y33957D01*
X56299Y38780D02*
Y38780D01*
X46161Y49766D02*
Y55020D01*
Y49766D02*
X48917Y47011D01*
Y44587D02*
Y47011D01*
X46161Y55020D02*
X47736Y56595D01*
X47343Y44587D02*
Y46358D01*
D27*
X43504Y9646D02*
D03*
X60039D02*
D03*
D28*
X44685Y41929D02*
D03*
Y40354D02*
D03*
Y38780D02*
D03*
Y37205D02*
D03*
Y35630D02*
D03*
X56299D02*
D03*
Y37205D02*
D03*
Y38780D02*
D03*
Y40354D02*
D03*
Y41929D02*
D03*
D29*
X47343Y32972D02*
D03*
X48917D02*
D03*
X50492D02*
D03*
X52067D02*
D03*
X53642D02*
D03*
Y44587D02*
D03*
X52067D02*
D03*
X50492D02*
D03*
X48917D02*
D03*
X47343D02*
D03*
D30*
X50492Y38780D02*
D03*
D31*
X30315Y7677D02*
D03*
X35236D02*
D03*
X47736Y56201D02*
D03*
X37894D02*
D03*
X42815D02*
D03*
D32*
X29724Y33957D02*
D03*
X36417D02*
D03*
D33*
X62008Y48327D02*
D03*
Y55020D02*
D03*
X46555Y25000D02*
D03*
Y18307D02*
D03*
X52362Y18307D02*
D03*
Y25000D02*
D03*
D34*
X67815Y48228D02*
D03*
Y54921D02*
D03*
D35*
X67618Y31201D02*
D03*
Y36122D02*
D03*
Y26280D02*
D03*
Y41043D02*
D03*
D36*
X40571Y18110D02*
D03*
Y25591D02*
D03*
X30217Y18110D02*
D03*
Y21850D02*
D03*
D37*
Y25591D02*
D03*
D38*
X10630Y12205D02*
D03*
Y22047D02*
D03*
Y31890D02*
D03*
Y41732D02*
D03*
Y51575D02*
D03*
D39*
X25492Y39665D02*
D03*
X25591Y12598D02*
D03*
X25591Y51476D02*
D03*
X38878Y44882D02*
D03*
X61516Y33071D02*
D03*
X59452Y44195D02*
D03*
X40455Y35041D02*
D03*
X42423Y47345D02*
D03*
X40455Y41636D02*
D03*
X52362Y60039D02*
D03*
X51279Y16929D02*
D03*
X56693Y24803D02*
D03*
X57973Y2756D02*
D03*
X46850D02*
D03*
X40059D02*
D03*
X27559Y60236D02*
D03*
X70866Y11811D02*
D03*
X28740Y37697D02*
D03*
X38681Y60138D02*
D03*
X25591Y20669D02*
D03*
X50492Y50098D02*
D03*
X25590Y16339D02*
D03*
X25591Y5807D02*
D03*
X51772Y8760D02*
D03*
X69882Y60335D02*
D03*
X70965Y51181D02*
D03*
X66437Y45472D02*
D03*
X31004Y30906D02*
D03*
X49114Y29035D02*
D03*
X47935Y24608D02*
D03*
X42224Y29232D02*
D03*
X56496Y47047D02*
D03*
X59350Y30512D02*
D03*
X35238Y5217D02*
D03*
X43407Y33073D02*
D03*
X43506Y53841D02*
D03*
M02*
