G04*
G04 #@! TF.GenerationSoftware,Altium Limited,Altium Designer,18.0.11 (651)*
G04*
G04 Layer_Color=65535*
%FSLAX25Y25*%
%MOIN*%
G70*
G01*
G75*
%ADD10C,0.00984*%
%ADD11C,0.00787*%
%ADD12C,0.00500*%
%ADD13C,0.01000*%
%ADD14R,0.03937X0.01968*%
D10*
X39567Y44291D02*
G03*
X39567Y44291I-492J0D01*
G01*
D11*
X32096Y27067D02*
G03*
X33966Y27067I935J0D01*
G01*
X41634Y43504D02*
Y44882D01*
X43012D01*
X53248D02*
X54626D01*
Y43504D02*
Y44882D01*
Y31890D02*
Y33268D01*
X53248Y31890D02*
X54626D01*
X41634D02*
Y33268D01*
Y31890D02*
X43012D01*
X32953Y27067D02*
X33966D01*
X32096D02*
X33110D01*
D12*
X40354Y3740D02*
X58464D01*
X40354Y14764D02*
X58464D01*
Y3740D02*
Y5709D01*
X40354Y3740D02*
Y5709D01*
X58464Y12795D02*
Y14764D01*
X40354Y12795D02*
Y14764D01*
Y5709D02*
X44291D01*
X40354Y12795D02*
X44291D01*
Y3740D02*
Y5665D01*
Y12795D02*
Y14764D01*
X31409Y31688D02*
Y35438D01*
X30009Y31688D02*
Y35438D01*
X58046Y50679D02*
Y51880D01*
X61246Y50679D02*
Y51880D01*
X64075Y44587D02*
X66831D01*
X68110Y52953D02*
Y57284D01*
X62795Y52953D02*
Y57284D01*
X68110D01*
Y45866D02*
Y49409D01*
X62795Y45866D02*
Y49409D01*
Y45866D02*
X63583Y45079D01*
X63484Y45177D02*
X64075Y44587D01*
X66831D02*
X67520Y45276D01*
X63583Y45079D02*
X67323D01*
X68110Y45866D01*
X42318Y20560D02*
X46068D01*
X42318Y21960D02*
X46068D01*
X48125D02*
X51875D01*
X48125Y20560D02*
X51875D01*
D13*
X4331Y49213D02*
Y53150D01*
Y9843D02*
Y13780D01*
D14*
X42323Y4725D02*
D03*
Y13780D02*
D03*
M02*
