G04*
G04 #@! TF.GenerationSoftware,Altium Limited,Altium Designer,18.0.11 (651)*
G04*
G04 Layer_Physical_Order=2*
G04 Layer_Color=16711680*
%FSLAX25Y25*%
%MOIN*%
G70*
G01*
G75*
%ADD11C,0.00787*%
G04:AMPARAMS|DCode=32|XSize=39.37mil|YSize=35.43mil|CornerRadius=4.43mil|HoleSize=0mil|Usage=FLASHONLY|Rotation=270.000|XOffset=0mil|YOffset=0mil|HoleType=Round|Shape=RoundedRectangle|*
%AMROUNDEDRECTD32*
21,1,0.03937,0.02657,0,0,270.0*
21,1,0.03051,0.03543,0,0,270.0*
1,1,0.00886,-0.01329,-0.01526*
1,1,0.00886,-0.01329,0.01526*
1,1,0.00886,0.01329,0.01526*
1,1,0.00886,0.01329,-0.01526*
%
%ADD32ROUNDEDRECTD32*%
%ADD38C,0.05906*%
%ADD39C,0.02756*%
%ADD40R,0.04724X0.02362*%
G36*
X72032Y803D02*
X803D01*
Y62189D01*
X72032D01*
Y803D01*
D02*
G37*
%LPC*%
G36*
X35581Y58193D02*
X32923D01*
X32534Y58116D01*
X32480Y58169D01*
X29331D01*
X28543Y57382D01*
Y53445D01*
X28704Y53284D01*
X29230Y52510D01*
X28704Y51736D01*
X28543Y51575D01*
Y47638D01*
X27931Y46579D01*
X26230D01*
X25750Y46484D01*
X25343Y46212D01*
X25071Y45805D01*
X24976Y45325D01*
Y42919D01*
X14877Y32820D01*
X13681Y32954D01*
X13503Y33382D01*
X12904Y34163D01*
X12122Y34763D01*
X11213Y35140D01*
X10236Y35269D01*
X9260Y35140D01*
X8350Y34763D01*
X7569Y34163D01*
X6969Y33382D01*
X6592Y32472D01*
X6464Y31496D01*
X6592Y30520D01*
X6969Y29610D01*
X7569Y28829D01*
X8350Y28229D01*
X9260Y27852D01*
X10236Y27724D01*
X11213Y27852D01*
X12122Y28229D01*
X12904Y28829D01*
X13503Y29610D01*
X13786Y30292D01*
X15256D01*
X15256Y30292D01*
X15717Y30384D01*
X16107Y30645D01*
X26482Y41019D01*
X27932D01*
X28543Y39961D01*
Y36024D01*
X28704Y35863D01*
X29230Y35089D01*
X28704Y34315D01*
X28543Y34154D01*
Y30217D01*
X27931Y29158D01*
X26230D01*
X25750Y29063D01*
X25343Y28791D01*
X25071Y28384D01*
X24976Y27904D01*
Y25498D01*
X23517Y24039D01*
X13120D01*
X12904Y24321D01*
X12122Y24920D01*
X11213Y25297D01*
X10236Y25426D01*
X9260Y25297D01*
X8350Y24920D01*
X7569Y24321D01*
X6969Y23540D01*
X6592Y22630D01*
X6464Y21654D01*
X6592Y20677D01*
X6969Y19767D01*
X7569Y18986D01*
X8350Y18386D01*
X9260Y18010D01*
X10236Y17881D01*
X11213Y18010D01*
X12122Y18386D01*
X12904Y18986D01*
X13503Y19767D01*
X13880Y20677D01*
X14006Y21630D01*
X24016D01*
X24016Y21630D01*
X24477Y21722D01*
X24867Y21983D01*
X26482Y23598D01*
X27932D01*
X28543Y22539D01*
Y18602D01*
X27932Y17544D01*
X26230D01*
X25750Y17448D01*
X25343Y17176D01*
X25071Y16769D01*
X24976Y16289D01*
Y13884D01*
X24501Y13409D01*
X13623D01*
X13503Y13697D01*
X12904Y14479D01*
X12122Y15078D01*
X11213Y15455D01*
X10236Y15583D01*
X9260Y15455D01*
X8350Y15078D01*
X7569Y14479D01*
X6969Y13697D01*
X6592Y12787D01*
X6464Y11811D01*
X6592Y10835D01*
X6969Y9925D01*
X7569Y9144D01*
X8350Y8544D01*
X9260Y8167D01*
X10236Y8039D01*
X11213Y8167D01*
X12122Y8544D01*
X12904Y9144D01*
X13503Y9925D01*
X13880Y10835D01*
X13902Y11000D01*
X25000D01*
X25000Y11000D01*
X25461Y11092D01*
X25852Y11353D01*
X26482Y11984D01*
X27833D01*
X28543Y11024D01*
Y7087D01*
X29331Y6299D01*
X29945D01*
X30727Y5118D01*
X30668Y4823D01*
X30836Y3978D01*
X31315Y3262D01*
X32031Y2783D01*
X32876Y2615D01*
X33720Y2783D01*
X34437Y3262D01*
X34675Y3619D01*
X35171D01*
X35171Y3619D01*
X35632Y3710D01*
X36022Y3971D01*
X38253Y6202D01*
X38514Y6593D01*
X38606Y7054D01*
X38606Y7054D01*
Y21548D01*
X40187Y23130D01*
X44193D01*
Y27067D01*
X38409D01*
Y29301D01*
X39928Y30821D01*
X40200Y30639D01*
X41045Y30471D01*
X41890Y30639D01*
X42606Y31118D01*
X43085Y31834D01*
X43253Y32679D01*
X43085Y33524D01*
X42606Y34240D01*
X41890Y34718D01*
X41045Y34887D01*
X40283Y34735D01*
X40132Y35492D01*
X39654Y36209D01*
X39559Y37167D01*
X46226Y43834D01*
X46226Y43834D01*
X46487Y44224D01*
X46578Y44685D01*
X46578Y44685D01*
Y49705D01*
X46578Y49705D01*
X46487Y50166D01*
X46226Y50556D01*
X46226Y50556D01*
X43349Y53433D01*
X43352Y53448D01*
X43183Y54292D01*
X42705Y55009D01*
X41989Y55487D01*
X41144Y55655D01*
X40299Y55487D01*
X39583Y55009D01*
X39104Y54292D01*
X38936Y53448D01*
X39104Y52603D01*
X39583Y51886D01*
X40299Y51408D01*
X41144Y51240D01*
X41971Y51404D01*
X44170Y49206D01*
Y45184D01*
X41216Y42230D01*
X39840Y42524D01*
X39654Y42803D01*
X38937Y43282D01*
X38723Y44488D01*
X38555Y45333D01*
X38077Y46049D01*
X37361Y46528D01*
X36972Y47200D01*
X36788Y47846D01*
X36835Y48081D01*
Y51132D01*
X36740Y51612D01*
X36620Y51790D01*
X36468Y52046D01*
Y52973D01*
X36620Y53229D01*
X36740Y53408D01*
X36835Y53888D01*
Y56939D01*
X36740Y57419D01*
X36468Y57826D01*
X36061Y58098D01*
X35581Y58193D01*
D02*
G37*
G36*
X10236Y45111D02*
X9260Y44982D01*
X8350Y44606D01*
X7569Y44006D01*
X6969Y43225D01*
X6592Y42315D01*
X6464Y41339D01*
X6592Y40362D01*
X6969Y39452D01*
X7569Y38671D01*
X8350Y38072D01*
X9260Y37695D01*
X10236Y37566D01*
X11213Y37695D01*
X12122Y38072D01*
X12904Y38671D01*
X13503Y39452D01*
X13880Y40362D01*
X14009Y41339D01*
X13880Y42315D01*
X13503Y43225D01*
X12904Y44006D01*
X12122Y44606D01*
X11213Y44982D01*
X10236Y45111D01*
D02*
G37*
G36*
X57089Y46009D02*
X56244Y45841D01*
X55528Y45362D01*
X55050Y44646D01*
X54882Y43801D01*
X55050Y42957D01*
X55390Y42447D01*
Y33865D01*
X52332Y30807D01*
X48130D01*
Y26870D01*
X54429D01*
Y29498D01*
X57446Y32515D01*
X57707Y32905D01*
X57799Y33366D01*
X57799Y33366D01*
Y41735D01*
X57934Y41762D01*
X58650Y42240D01*
X59129Y42957D01*
X59297Y43801D01*
X59129Y44646D01*
X58650Y45362D01*
X57934Y45841D01*
X57089Y46009D01*
D02*
G37*
%LPD*%
D11*
X34449Y43996D02*
X36516D01*
X34252Y43799D02*
Y55413D01*
X10236Y12205D02*
X25000D01*
X24016Y22835D02*
X27559Y26378D01*
X11417Y22835D02*
X24016D01*
X10236Y21654D02*
X11417Y22835D01*
X37795Y35240D02*
X38388Y34647D01*
X45374Y44685D02*
Y49705D01*
X37795Y37106D02*
X45374Y44685D01*
X37795Y35240D02*
Y37106D01*
X40182Y32777D02*
X41831D01*
X37205Y24078D02*
Y29800D01*
X40182Y32777D01*
X41144Y53448D02*
X41631D01*
X40551D02*
X41144D01*
X56595Y42915D02*
X56988Y43309D01*
X56595Y33366D02*
Y42915D01*
X52067Y28839D02*
X56595Y33366D01*
X41631Y53448D02*
X45374Y49705D01*
X34252Y37992D02*
X37699Y41439D01*
X38191D01*
X34252Y43799D02*
X34449Y43996D01*
X10236Y31496D02*
X15256D01*
X41043Y25098D02*
X41831D01*
X40453D02*
X41043D01*
X34252Y20571D02*
Y21125D01*
X37205Y24078D01*
X37402Y22047D02*
X40453Y25098D01*
X37402Y7054D02*
Y22047D01*
X35171Y4823D02*
X37402Y7054D01*
X32875Y4823D02*
X35171D01*
X34252Y9055D02*
Y14764D01*
X32875Y4823D02*
X32876Y4823D01*
X34252Y55413D02*
X34252Y55413D01*
X34252Y32185D02*
Y37992D01*
Y32185D02*
X34252Y32185D01*
Y26378D02*
Y32185D01*
X34252Y20571D02*
X34252Y20571D01*
Y14764D02*
Y20571D01*
X34252Y14764D02*
X34252Y14764D01*
X25000Y12205D02*
X27559Y14764D01*
X15256Y31496D02*
X27559Y43799D01*
D32*
X34252Y55413D02*
D03*
X27559D02*
D03*
X34252Y43799D02*
D03*
X27559D02*
D03*
X27559Y37992D02*
D03*
X34252D02*
D03*
X27559Y20571D02*
D03*
X34252D02*
D03*
X34252Y26378D02*
D03*
X27559D02*
D03*
X34252Y14764D02*
D03*
X27559D02*
D03*
X27559Y32185D02*
D03*
X34252D02*
D03*
X27559Y9055D02*
D03*
X34252D02*
D03*
Y49606D02*
D03*
X27559D02*
D03*
D38*
X10236Y11811D02*
D03*
Y21654D02*
D03*
Y31496D02*
D03*
Y41339D02*
D03*
Y51181D02*
D03*
D39*
X36516Y44488D02*
D03*
X59153Y32677D02*
D03*
X57089Y43801D02*
D03*
X38092Y34647D02*
D03*
X40848Y46164D02*
D03*
X38092Y41242D02*
D03*
X50000Y60433D02*
D03*
X48917Y16535D02*
D03*
X54331Y24409D02*
D03*
X55610Y2362D02*
D03*
X44488D02*
D03*
X37697D02*
D03*
X13583Y16634D02*
D03*
X14567Y34744D02*
D03*
X14567Y26772D02*
D03*
X25984Y37697D02*
D03*
X36319Y59744D02*
D03*
X38780Y48524D02*
D03*
X24409Y20276D02*
D03*
X48130Y49705D02*
D03*
X23524Y14764D02*
D03*
X23031Y5413D02*
D03*
X49409Y8366D02*
D03*
X67520Y59941D02*
D03*
X68602Y50787D02*
D03*
X64075Y45079D02*
D03*
X28642Y30512D02*
D03*
X46752Y28642D02*
D03*
X45573Y24214D02*
D03*
X39862Y28839D02*
D03*
X54134Y46654D02*
D03*
X56988Y30118D02*
D03*
X32876Y4823D02*
D03*
X41045Y32679D02*
D03*
X41144Y53448D02*
D03*
D40*
X51279Y28839D02*
D03*
Y21358D02*
D03*
X41043Y25098D02*
D03*
M02*
