G04*
G04 #@! TF.GenerationSoftware,Altium Limited,Altium Designer,18.0.11 (651)*
G04*
G04 Layer_Color=65535*
%FSLAX25Y25*%
%MOIN*%
G70*
G01*
G75*
%ADD10C,0.00984*%
%ADD11C,0.00787*%
%ADD12C,0.00500*%
%ADD13C,0.01000*%
%ADD14R,0.03937X0.01968*%
D10*
X41929Y44685D02*
G03*
X41929Y44685I-492J0D01*
G01*
D11*
X34459Y27461D02*
G03*
X36329Y27461I935J0D01*
G01*
X43996Y43898D02*
Y45276D01*
X45374D01*
X55610D02*
X56988D01*
Y43898D02*
Y45276D01*
Y32283D02*
Y33661D01*
X55610Y32283D02*
X56988D01*
X43996D02*
Y33661D01*
Y32283D02*
X45374D01*
X35315Y27461D02*
X36329D01*
X34459D02*
X35472D01*
D12*
X42716Y4134D02*
X60827D01*
X42716Y15157D02*
X60827D01*
Y4134D02*
Y6102D01*
X42716Y4134D02*
Y6102D01*
X60827Y13189D02*
Y15157D01*
X42716Y13189D02*
Y15157D01*
Y6102D02*
X46653D01*
X42716Y13189D02*
X46653D01*
Y4134D02*
Y6059D01*
Y13189D02*
Y15157D01*
X33771Y32082D02*
Y35831D01*
X32371Y32082D02*
Y35831D01*
X60408Y51073D02*
Y52273D01*
X63608Y51073D02*
Y52273D01*
X66437Y44980D02*
X69193D01*
X70472Y53347D02*
Y57677D01*
X65157Y53347D02*
Y57677D01*
X70472D01*
Y46260D02*
Y49803D01*
X65157Y46260D02*
Y49803D01*
Y46260D02*
X65945Y45472D01*
X65846Y45571D02*
X66437Y44980D01*
X69193D02*
X69882Y45669D01*
X65945Y45472D02*
X69685D01*
X70472Y46260D01*
X44680Y20954D02*
X48430D01*
X44680Y22354D02*
X48430D01*
X50487D02*
X54237D01*
X50487Y20954D02*
X54237D01*
D13*
X4724Y49606D02*
Y53543D01*
Y10236D02*
Y14173D01*
D14*
X44685Y5118D02*
D03*
Y14173D02*
D03*
M02*
