G04*
G04 #@! TF.GenerationSoftware,Altium Limited,Altium Designer,18.0.11 (651)*
G04*
G04 Layer_Physical_Order=1*
G04 Layer_Color=255*
%FSLAX25Y25*%
%MOIN*%
G70*
G01*
G75*
%ADD11C,0.00787*%
G04:AMPARAMS|DCode=27|XSize=86.61mil|YSize=59.06mil|CornerRadius=7.38mil|HoleSize=0mil|Usage=FLASHONLY|Rotation=180.000|XOffset=0mil|YOffset=0mil|HoleType=Round|Shape=RoundedRectangle|*
%AMROUNDEDRECTD27*
21,1,0.08661,0.04429,0,0,180.0*
21,1,0.07185,0.05906,0,0,180.0*
1,1,0.01476,-0.03593,0.02215*
1,1,0.01476,0.03593,0.02215*
1,1,0.01476,0.03593,-0.02215*
1,1,0.01476,-0.03593,-0.02215*
%
%ADD27ROUNDEDRECTD27*%
%ADD28R,0.03543X0.00787*%
%ADD29R,0.00787X0.03543*%
%ADD30R,0.06693X0.06693*%
%ADD31R,0.03937X0.07874*%
G04:AMPARAMS|DCode=32|XSize=39.37mil|YSize=35.43mil|CornerRadius=4.43mil|HoleSize=0mil|Usage=FLASHONLY|Rotation=270.000|XOffset=0mil|YOffset=0mil|HoleType=Round|Shape=RoundedRectangle|*
%AMROUNDEDRECTD32*
21,1,0.03937,0.02657,0,0,270.0*
21,1,0.03051,0.03543,0,0,270.0*
1,1,0.00886,-0.01329,-0.01526*
1,1,0.00886,-0.01329,0.01526*
1,1,0.00886,0.01329,0.01526*
1,1,0.00886,0.01329,-0.01526*
%
%ADD32ROUNDEDRECTD32*%
G04:AMPARAMS|DCode=33|XSize=39.37mil|YSize=35.43mil|CornerRadius=4.43mil|HoleSize=0mil|Usage=FLASHONLY|Rotation=180.000|XOffset=0mil|YOffset=0mil|HoleType=Round|Shape=RoundedRectangle|*
%AMROUNDEDRECTD33*
21,1,0.03937,0.02657,0,0,180.0*
21,1,0.03051,0.03543,0,0,180.0*
1,1,0.00886,-0.01526,0.01329*
1,1,0.00886,0.01526,0.01329*
1,1,0.00886,0.01526,-0.01329*
1,1,0.00886,-0.01526,-0.01329*
%
%ADD33ROUNDEDRECTD33*%
G04:AMPARAMS|DCode=34|XSize=31.5mil|YSize=31.5mil|CornerRadius=3.94mil|HoleSize=0mil|Usage=FLASHONLY|Rotation=270.000|XOffset=0mil|YOffset=0mil|HoleType=Round|Shape=RoundedRectangle|*
%AMROUNDEDRECTD34*
21,1,0.03150,0.02362,0,0,270.0*
21,1,0.02362,0.03150,0,0,270.0*
1,1,0.00787,-0.01181,-0.01181*
1,1,0.00787,-0.01181,0.01181*
1,1,0.00787,0.01181,0.01181*
1,1,0.00787,0.01181,-0.01181*
%
%ADD34ROUNDEDRECTD34*%
%ADD35R,0.07874X0.03937*%
G04:AMPARAMS|DCode=36|XSize=39.37mil|YSize=25.98mil|CornerRadius=6.5mil|HoleSize=0mil|Usage=FLASHONLY|Rotation=0.000|XOffset=0mil|YOffset=0mil|HoleType=Round|Shape=RoundedRectangle|*
%AMROUNDEDRECTD36*
21,1,0.03937,0.01299,0,0,0.0*
21,1,0.02638,0.02598,0,0,0.0*
1,1,0.01299,0.01319,-0.00650*
1,1,0.01299,-0.01319,-0.00650*
1,1,0.01299,-0.01319,0.00650*
1,1,0.01299,0.01319,0.00650*
%
%ADD36ROUNDEDRECTD36*%
%ADD37R,0.03937X0.02598*%
%ADD38C,0.05906*%
%ADD39C,0.02756*%
G36*
X72032Y803D02*
X803D01*
Y62189D01*
X72032D01*
Y803D01*
D02*
G37*
%LPC*%
G36*
X48130Y60925D02*
X37697D01*
Y52287D01*
X16831D01*
X16370Y52195D01*
X15979Y51934D01*
X9385Y45340D01*
X9124Y44949D01*
X9119Y44924D01*
X8350Y44606D01*
X7569Y44006D01*
X6969Y43225D01*
X6592Y42315D01*
X6464Y41339D01*
X6592Y40362D01*
X6969Y39452D01*
X7569Y38671D01*
X8350Y38072D01*
X9260Y37695D01*
X10236Y37566D01*
X11213Y37695D01*
X12122Y38072D01*
X12904Y38671D01*
X13503Y39452D01*
X13880Y40362D01*
X14009Y41339D01*
X13880Y42315D01*
X13503Y43225D01*
X12904Y44006D01*
X12928Y45476D01*
X17330Y49878D01*
X39363D01*
X43776Y45466D01*
Y44193D01*
X43799Y44077D01*
Y42717D01*
X42439D01*
X42323Y42740D01*
X41936D01*
X39828Y44848D01*
X39437Y45109D01*
X38976Y45200D01*
X38555Y45333D01*
X38077Y46049D01*
X37361Y46528D01*
X36516Y46696D01*
X35671Y46528D01*
X34955Y46049D01*
X34476Y45333D01*
X34308Y44488D01*
X34476Y43643D01*
X34955Y42927D01*
X35671Y42449D01*
X35885Y41242D01*
X36053Y40397D01*
X36531Y39681D01*
X37247Y39202D01*
X38092Y39034D01*
X38176Y39051D01*
X38742Y38786D01*
X38923Y38182D01*
X38950Y38009D01*
X38957Y37541D01*
X38241Y36825D01*
X38092Y36855D01*
X37247Y36687D01*
X36531Y36209D01*
X35864Y36248D01*
X35384Y36343D01*
X32726D01*
X32337Y36266D01*
X32283Y36319D01*
X29134D01*
X28346Y35531D01*
Y31594D01*
X29134Y30807D01*
X32283D01*
X32851Y29861D01*
Y28543D01*
X32851Y28543D01*
X32943Y28082D01*
X33204Y27692D01*
X35425Y25471D01*
Y24547D01*
X35536Y23987D01*
X35854Y23511D01*
X36329Y23194D01*
X36890Y23082D01*
X38500D01*
X38886Y22582D01*
X38306Y21401D01*
X32208D01*
Y22865D01*
X32208Y22865D01*
X32116Y23325D01*
X31855Y23716D01*
X31855Y23716D01*
X30610Y24961D01*
Y27283D01*
X26585D01*
X21521Y32348D01*
X21130Y32609D01*
X20669Y32700D01*
X20669Y32700D01*
X13786D01*
X13503Y33382D01*
X12904Y34163D01*
X12122Y34763D01*
X11213Y35140D01*
X10236Y35269D01*
X9260Y35140D01*
X8350Y34763D01*
X7569Y34163D01*
X6969Y33382D01*
X6592Y32472D01*
X6464Y31496D01*
X6592Y30520D01*
X6969Y29610D01*
X7569Y28829D01*
X8350Y28229D01*
X9260Y27852D01*
X10236Y27724D01*
X11213Y27852D01*
X12122Y28229D01*
X12904Y28829D01*
X13503Y29610D01*
X13786Y30292D01*
X20170D01*
X25098Y25364D01*
Y23110D01*
X29055D01*
X29800Y22366D01*
Y20548D01*
X29083Y19831D01*
X26535D01*
X25975Y19720D01*
X25499Y19402D01*
X25182Y18927D01*
X25070Y18366D01*
Y17067D01*
X25182Y16506D01*
X25499Y16031D01*
X25975Y15713D01*
X26535Y15602D01*
X29173D01*
X29734Y15713D01*
X30209Y16031D01*
X30527Y16506D01*
X30638Y17067D01*
Y17980D01*
X31651Y18993D01*
X34345D01*
X35425Y18366D01*
Y17067D01*
X35536Y16506D01*
X35854Y16031D01*
X36329Y15713D01*
X36890Y15602D01*
X39528D01*
X40088Y15713D01*
X40347Y15887D01*
X40793Y15970D01*
X41771Y15712D01*
X41780Y15698D01*
X42187Y15426D01*
X42667Y15330D01*
X45719D01*
X46199Y15426D01*
X46606Y15698D01*
X46877Y16105D01*
X46973Y16585D01*
Y18286D01*
X48031Y18898D01*
X51968D01*
X52756Y19685D01*
Y22835D01*
X52702Y22888D01*
X52780Y23278D01*
Y25388D01*
X53747Y26355D01*
X58661D01*
X58661Y26355D01*
X59122Y26447D01*
X59513Y26708D01*
X60834Y28028D01*
X62795D01*
X62795Y28028D01*
X62912Y28051D01*
X69980D01*
Y32972D01*
Y37894D01*
Y43406D01*
X60853D01*
Y44861D01*
X60853Y44861D01*
X61651Y45445D01*
X62058Y45717D01*
X62330Y46124D01*
X62426Y46604D01*
Y48917D01*
X63484Y49213D01*
X63484Y49213D01*
Y49213D01*
X63484Y49213D01*
X67421D01*
Y52452D01*
X67485Y52495D01*
X67746Y52886D01*
X67838Y53347D01*
Y55709D01*
X67746Y56169D01*
X67485Y56560D01*
X67095Y56821D01*
X66634Y56913D01*
X64272D01*
X63811Y56821D01*
X63420Y56560D01*
X63407Y56559D01*
X62152Y56701D01*
X62058Y56842D01*
X61651Y57114D01*
X61171Y57209D01*
X58120D01*
X57640Y57114D01*
X57233Y56842D01*
X56961Y56435D01*
X56866Y55955D01*
Y53297D01*
X56943Y52908D01*
X56890Y52854D01*
Y49705D01*
X56943Y49651D01*
X56866Y49262D01*
Y46604D01*
X56244Y45841D01*
X55528Y45362D01*
X55050Y44646D01*
X54882Y43801D01*
X53898Y42717D01*
X52461D01*
Y46752D01*
X47732D01*
X47668Y47078D01*
X47407Y47468D01*
X45003Y49872D01*
Y51477D01*
X48130D01*
Y60925D01*
D02*
G37*
G36*
X10236Y25426D02*
X9260Y25297D01*
X8350Y24920D01*
X7569Y24321D01*
X6969Y23540D01*
X6592Y22630D01*
X6464Y21654D01*
X6592Y20677D01*
X6969Y19767D01*
X7569Y18986D01*
X8350Y18386D01*
X9260Y18010D01*
X10236Y17881D01*
X11213Y18010D01*
X12122Y18386D01*
X12904Y18986D01*
X13503Y19767D01*
X13880Y20677D01*
X14009Y21654D01*
X13880Y22630D01*
X13503Y23540D01*
X12904Y24321D01*
X12122Y24920D01*
X11213Y25297D01*
X10236Y25426D01*
D02*
G37*
G36*
Y15583D02*
X9260Y15455D01*
X8350Y15078D01*
X7569Y14479D01*
X6969Y13697D01*
X6592Y12787D01*
X6464Y11811D01*
X6592Y10835D01*
X6969Y9925D01*
X7569Y9144D01*
X8350Y8544D01*
X9260Y8167D01*
X10236Y8039D01*
X11213Y8167D01*
X11895Y8450D01*
X12436Y7908D01*
X12436Y7908D01*
X12826Y7647D01*
X13287Y7556D01*
X13287Y7556D01*
X25197D01*
Y2559D01*
X35630D01*
Y3914D01*
X52362D01*
X52362Y3914D01*
X52823Y4005D01*
X53214Y4267D01*
X54429Y5482D01*
X61269D01*
X61865Y5600D01*
X62369Y5937D01*
X62707Y6442D01*
X62825Y7037D01*
Y11467D01*
X62707Y12062D01*
X62369Y12566D01*
X61865Y12904D01*
X61269Y13022D01*
X54084D01*
X53489Y12904D01*
X52985Y12566D01*
X52647Y12062D01*
X52529Y11467D01*
Y7037D01*
X51675Y6322D01*
X47352D01*
X46290Y7037D01*
Y11467D01*
X46171Y12062D01*
X45834Y12566D01*
X45329Y12904D01*
X44734Y13022D01*
X37894D01*
X37663Y13253D01*
X37272Y13514D01*
X36811Y13606D01*
X36811Y13606D01*
X30416D01*
X30416Y13606D01*
X29955Y13514D01*
X29565Y13253D01*
X29565Y13253D01*
X28676Y12364D01*
X28438Y12008D01*
X25197D01*
Y9964D01*
X14798D01*
X14420Y10323D01*
X13921Y11145D01*
X14009Y11811D01*
X13880Y12787D01*
X13503Y13697D01*
X12904Y14479D01*
X12122Y15078D01*
X11213Y15455D01*
X10236Y15583D01*
D02*
G37*
%LPD*%
G36*
X51378Y38780D02*
Y35138D01*
X44882D01*
Y37992D01*
X44882D01*
Y38780D01*
X44882D01*
Y41634D01*
X51378D01*
Y38780D01*
D02*
G37*
G36*
X60532Y34240D02*
Y30437D01*
X60335D01*
X59874Y30345D01*
X59483Y30084D01*
X58163Y28763D01*
X53248D01*
X52787Y28672D01*
X52397Y28411D01*
X52397Y28411D01*
X51175Y27189D01*
X48474D01*
X47994Y27094D01*
X47587Y26822D01*
X47315Y26415D01*
X47220Y25935D01*
Y24234D01*
X46161Y23622D01*
X42224D01*
X41977Y23374D01*
X40961Y24390D01*
X40993Y24547D01*
Y25846D01*
X40881Y26407D01*
X40564Y26882D01*
X40088Y27200D01*
X39528Y27312D01*
X36990D01*
X35259Y29042D01*
Y30783D01*
X35384D01*
X35864Y30878D01*
X36271Y31150D01*
X36543Y31557D01*
X36560Y31646D01*
X36917Y32145D01*
X37715Y32454D01*
X38907Y32330D01*
X39006Y31834D01*
X39484Y31118D01*
X40200Y30639D01*
X41045Y30471D01*
X41890Y30639D01*
X42606Y31118D01*
X42618Y31135D01*
X43799Y30777D01*
Y30020D01*
X52461D01*
Y34055D01*
X53821D01*
X53937Y34032D01*
X57798D01*
X57798Y34032D01*
X57798Y34032D01*
X58155D01*
X58155Y34032D01*
X58616Y34124D01*
X59006Y34385D01*
X59350Y34729D01*
X60532Y34240D01*
D02*
G37*
D11*
X36516Y44488D02*
X37008Y43996D01*
X27953Y6693D02*
X29528Y8268D01*
X13287Y8760D02*
X27953D01*
X29528Y11513D02*
X30416Y12402D01*
X29528Y8268D02*
Y11513D01*
X30416Y12402D02*
X36811D01*
X47343Y21654D02*
X53248Y27559D01*
X38388Y34647D02*
Y35269D01*
X38976Y43996D02*
X41437Y41535D01*
X37008Y43996D02*
X38976D01*
X38092Y34647D02*
X38388D01*
X35140D02*
X38092D01*
X60335Y29232D02*
X62795D01*
X58661Y27559D02*
X60335Y29232D01*
X53248Y27559D02*
X58661D01*
X58155Y35236D02*
X59336Y36417D01*
X57798Y35236D02*
X58155D01*
X57798Y35236D02*
X57798Y35236D01*
X57503Y36811D02*
X57995Y37303D01*
X57146Y36811D02*
X57503D01*
X57146Y36811D02*
X57146Y36811D01*
X53937Y38386D02*
X56850D01*
X59646Y44864D02*
Y47933D01*
Y44864D02*
X59649Y44861D01*
Y42741D02*
Y44861D01*
X59646Y42739D02*
X59649Y42741D01*
X59646Y41181D02*
Y42739D01*
X56198Y39961D02*
X57579Y41342D01*
X53937Y39961D02*
X56198D01*
X56850Y38386D02*
X59646Y41181D01*
X57995Y37303D02*
X59766Y39075D01*
X53937Y36811D02*
X57146D01*
X53937Y35236D02*
X57798D01*
X41043D02*
X42323D01*
X40945Y35138D02*
X41043Y35236D01*
X40945Y33073D02*
Y35138D01*
X36811Y12402D02*
X39961Y9252D01*
X56890Y43509D02*
X57579Y42820D01*
Y41342D02*
Y42820D01*
X38728Y37837D02*
X38976Y38085D01*
X39930Y36811D02*
X42323D01*
X38388Y35269D02*
X39930Y36811D01*
X38976Y38085D02*
Y38386D01*
X42323D01*
X34055Y33563D02*
X35140Y34647D01*
X41437Y41535D02*
X42323D01*
X38191Y41439D02*
X38584D01*
X40062Y39961D01*
X42323D01*
X62106Y36417D02*
X64370Y34154D01*
X59336Y36417D02*
X62106D01*
X59744Y54528D02*
X65453D01*
X59646Y54626D02*
X59744Y54528D01*
X42917Y18504D02*
X44488D01*
X44045Y18061D02*
X44488Y18504D01*
X31152Y20197D02*
X41224D01*
X31004Y20049D02*
X31152Y20197D01*
X31004Y20049D02*
Y22865D01*
X62795Y29232D02*
X64370Y30807D01*
X38209Y25197D02*
X38451D01*
X41224Y20197D02*
X42917Y18504D01*
X38451Y25197D02*
X41995Y21654D01*
X47343D01*
X56595Y9350D02*
X60630D01*
X33810Y5757D02*
X34449Y5118D01*
X32874Y4825D02*
Y7283D01*
Y4825D02*
X32876Y4823D01*
X34449Y5118D02*
X52362D01*
X59766Y39075D02*
X64370D01*
X39961Y9252D02*
X41142D01*
X27953Y7283D02*
Y8760D01*
Y6693D02*
Y7283D01*
X10236Y11811D02*
X13287Y8760D01*
X28672Y25197D02*
X31004Y22865D01*
X28672Y17717D02*
X31004Y20049D01*
X27854Y25197D02*
X28672D01*
X52362Y5118D02*
X56595Y9350D01*
X26969Y25197D02*
X27854D01*
X20669Y31496D02*
X26969Y25197D01*
X10236Y31496D02*
X20669D01*
X27854Y17717D02*
X28672D01*
X42323Y38386D02*
X48130D01*
X37402Y25197D02*
X38209D01*
X34055Y28543D02*
X37402Y25197D01*
X34055Y28543D02*
Y33563D01*
X39862Y51083D02*
X44980Y45965D01*
X16831Y51083D02*
X39862D01*
X10236Y44488D02*
X16831Y51083D01*
X53937Y38386D02*
Y38386D01*
X43799Y49373D02*
Y54626D01*
Y49373D02*
X46555Y46617D01*
Y44193D02*
Y46617D01*
X43799Y54626D02*
X45374Y56201D01*
X10236Y41339D02*
Y44488D01*
X44980Y44193D02*
Y45965D01*
D27*
X41142Y9252D02*
D03*
X57677D02*
D03*
D28*
X42323Y41535D02*
D03*
Y39961D02*
D03*
Y38386D02*
D03*
Y36811D02*
D03*
Y35236D02*
D03*
X53937D02*
D03*
Y36811D02*
D03*
Y38386D02*
D03*
Y39961D02*
D03*
Y41535D02*
D03*
D29*
X44980Y32579D02*
D03*
X46555D02*
D03*
X48130D02*
D03*
X49705D02*
D03*
X51279D02*
D03*
Y44193D02*
D03*
X49705D02*
D03*
X48130D02*
D03*
X46555D02*
D03*
X44980D02*
D03*
D30*
X48130Y38386D02*
D03*
D31*
X27953Y7283D02*
D03*
X32874D02*
D03*
X45374Y56201D02*
D03*
X35531D02*
D03*
X40453D02*
D03*
D32*
X27362Y33563D02*
D03*
X34055D02*
D03*
D33*
X59646Y47933D02*
D03*
Y54626D02*
D03*
X44193Y24606D02*
D03*
Y17913D02*
D03*
X50000Y17913D02*
D03*
Y24606D02*
D03*
D34*
X65453Y47835D02*
D03*
Y54528D02*
D03*
D35*
X65256Y30807D02*
D03*
Y35728D02*
D03*
Y25886D02*
D03*
Y40650D02*
D03*
D36*
X38209Y17717D02*
D03*
Y25197D02*
D03*
X27854Y17717D02*
D03*
Y21457D02*
D03*
D37*
Y25197D02*
D03*
D38*
X10236Y11811D02*
D03*
Y21654D02*
D03*
Y31496D02*
D03*
Y41339D02*
D03*
Y51181D02*
D03*
D39*
X36516Y44488D02*
D03*
X59153Y32677D02*
D03*
X57089Y43801D02*
D03*
X38092Y34647D02*
D03*
X40848Y46164D02*
D03*
X38092Y41242D02*
D03*
X50000Y60433D02*
D03*
X48917Y16535D02*
D03*
X54331Y24409D02*
D03*
X55610Y2362D02*
D03*
X44488D02*
D03*
X37697D02*
D03*
X13583Y16634D02*
D03*
X14567Y34744D02*
D03*
X14567Y26772D02*
D03*
X25984Y37697D02*
D03*
X36319Y59744D02*
D03*
X38780Y48524D02*
D03*
X24409Y20276D02*
D03*
X48130Y49705D02*
D03*
X23524Y14764D02*
D03*
X23031Y5413D02*
D03*
X49409Y8366D02*
D03*
X67520Y59941D02*
D03*
X68602Y50787D02*
D03*
X64075Y45079D02*
D03*
X28642Y30512D02*
D03*
X46752Y28642D02*
D03*
X45573Y24214D02*
D03*
X39862Y28839D02*
D03*
X54134Y46654D02*
D03*
X56988Y30118D02*
D03*
X32876Y4823D02*
D03*
X41045Y32679D02*
D03*
X41144Y53448D02*
D03*
M02*
